<mxfile host="65bd71144e">
    <diagram id="rly2DWLNhIOrozENhonF" name="Page-1">
        <mxGraphModel dx="2204" dy="829" grid="1" gridSize="10" guides="1" tooltips="1" connect="1" arrows="1" fold="1" page="1" pageScale="1" pageWidth="827" pageHeight="1169" math="0" shadow="0">
            <root>
                <mxCell id="0"/>
                <mxCell id="1" parent="0"/>
                <mxCell id="34" value="" style="edgeStyle=none;html=1;" edge="1" parent="1" source="12" target="23">
                    <mxGeometry relative="1" as="geometry"/>
                </mxCell>
                <mxCell id="62" value="" style="edgeStyle=none;html=1;" edge="1" parent="1" source="12" target="48">
                    <mxGeometry relative="1" as="geometry"/>
                </mxCell>
                <mxCell id="12" value="Auth" style="swimlane;startSize=20;horizontal=1;childLayout=flowLayout;flowOrientation=north;resizable=0;interRankCellSpacing=50;containerType=tree;fillColor=#60a917;strokeColor=#2D7600;fontColor=#ffffff;" vertex="1" parent="1">
                    <mxGeometry x="190" y="10" width="400" height="290" as="geometry"/>
                </mxCell>
                <mxCell id="13" value="Start" style="whiteSpace=wrap;html=1;" vertex="1" parent="12">
                    <mxGeometry x="150" y="40" width="100" height="40" as="geometry"/>
                </mxCell>
                <mxCell id="14" value="Login" style="whiteSpace=wrap;html=1;" vertex="1" parent="12">
                    <mxGeometry x="20" y="135" width="100" height="40" as="geometry"/>
                </mxCell>
                <mxCell id="15" value="" style="html=1;curved=1;noEdgeStyle=1;orthogonal=1;" edge="1" parent="12" source="13" target="14">
                    <mxGeometry relative="1" as="geometry">
                        <Array as="points">
                            <mxPoint x="170" y="92"/>
                            <mxPoint x="70" y="118"/>
                        </Array>
                    </mxGeometry>
                </mxCell>
                <mxCell id="16" value="Signup" style="whiteSpace=wrap;html=1;" vertex="1" parent="12">
                    <mxGeometry x="150" y="135" width="100" height="40" as="geometry"/>
                </mxCell>
                <mxCell id="17" value="" style="html=1;curved=1;noEdgeStyle=1;orthogonal=1;" edge="1" parent="12" source="13" target="16">
                    <mxGeometry relative="1" as="geometry">
                        <Array as="points">
                            <mxPoint x="200" y="94"/>
                            <mxPoint x="200" y="118"/>
                        </Array>
                    </mxGeometry>
                </mxCell>
                <mxCell id="18" value="Dashboard" style="whiteSpace=wrap;html=1;" vertex="1" parent="12">
                    <mxGeometry x="85" y="230" width="100" height="40" as="geometry"/>
                </mxCell>
                <mxCell id="19" value="" style="html=1;curved=1;noEdgeStyle=1;orthogonal=1;" edge="1" parent="12" source="14" target="18">
                    <mxGeometry relative="1" as="geometry">
                        <Array as="points">
                            <mxPoint x="70" y="192"/>
                            <mxPoint x="112.5" y="218"/>
                        </Array>
                    </mxGeometry>
                </mxCell>
                <mxCell id="20" value="" style="html=1;curved=1;noEdgeStyle=1;orthogonal=1;" edge="1" parent="12" source="16" target="18">
                    <mxGeometry relative="1" as="geometry">
                        <Array as="points">
                            <mxPoint x="177.5" y="192"/>
                            <mxPoint x="157.5" y="218"/>
                        </Array>
                    </mxGeometry>
                </mxCell>
                <mxCell id="21" value="" style="html=1;curved=1;noEdgeStyle=1;orthogonal=1;" edge="1" target="22" source="16" parent="12">
                    <mxGeometry relative="1" as="geometry">
                        <mxPoint x="447.5" y="660" as="sourcePoint"/>
                        <Array as="points">
                            <mxPoint x="222.5" y="192"/>
                            <mxPoint x="242.5" y="218"/>
                        </Array>
                    </mxGeometry>
                </mxCell>
                <mxCell id="22" value="Verify Email" style="whiteSpace=wrap;html=1;" vertex="1" parent="12">
                    <mxGeometry x="215" y="230" width="100" height="40" as="geometry"/>
                </mxCell>
                <mxCell id="35" value="" style="edgeStyle=none;html=1;noEdgeStyle=1;orthogonal=1;" edge="1" source="13" target="36" parent="12">
                    <mxGeometry relative="1" as="geometry">
                        <Array as="points">
                            <mxPoint x="230" y="92"/>
                            <mxPoint x="330" y="118"/>
                        </Array>
                    </mxGeometry>
                </mxCell>
                <mxCell id="39" style="edgeStyle=none;html=1;noEdgeStyle=1;orthogonal=1;" edge="1" parent="12" source="36" target="22">
                    <mxGeometry relative="1" as="geometry">
                        <Array as="points">
                            <mxPoint x="330" y="192"/>
                            <mxPoint x="287.5" y="218"/>
                        </Array>
                    </mxGeometry>
                </mxCell>
                <mxCell id="36" value="Forgot Pass" style="whiteSpace=wrap;html=1;" vertex="1" parent="12">
                    <mxGeometry x="280" y="130" width="100" height="50" as="geometry"/>
                </mxCell>
                <mxCell id="166" value="" style="edgeStyle=none;html=1;" edge="1" parent="1" source="23" target="145">
                    <mxGeometry relative="1" as="geometry"/>
                </mxCell>
                <mxCell id="23" value="See Problems" style="swimlane;startSize=20;horizontal=1;childLayout=flowLayout;flowOrientation=north;resizable=0;interRankCellSpacing=50;containerType=tree;fillColor=#d80073;strokeColor=#A50040;fontColor=#ffffff;" vertex="1" parent="1">
                    <mxGeometry x="-20" y="340" width="494" height="508" as="geometry"/>
                </mxCell>
                <mxCell id="24" value="See Problems I Care About" style="whiteSpace=wrap;html=1;fillColor=#60a917;strokeColor=#2D7600;fontColor=#ffffff;" vertex="1" parent="23">
                    <mxGeometry x="150" y="40" width="100" height="40" as="geometry"/>
                </mxCell>
                <mxCell id="167" style="edgeStyle=none;html=1;entryX=0.25;entryY=0;entryDx=0;entryDy=0;noEdgeStyle=1;orthogonal=1;" edge="1" parent="23" source="27" target="43">
                    <mxGeometry relative="1" as="geometry">
                        <Array as="points">
                            <mxPoint x="70" y="216"/>
                            <mxPoint x="107.5" y="242"/>
                        </Array>
                    </mxGeometry>
                </mxCell>
                <mxCell id="27" value="Table View&lt;br&gt;Emphasizes deadline" style="whiteSpace=wrap;html=1;" vertex="1" parent="23">
                    <mxGeometry x="20" y="132" width="100" height="70" as="geometry"/>
                </mxCell>
                <mxCell id="28" value="" style="html=1;curved=1;noEdgeStyle=1;orthogonal=1;" edge="1" parent="23" source="24" target="27">
                    <mxGeometry relative="1" as="geometry">
                        <Array as="points">
                            <mxPoint x="170" y="92"/>
                            <mxPoint x="70" y="118"/>
                        </Array>
                    </mxGeometry>
                </mxCell>
                <mxCell id="40" value="" style="edgeStyle=none;html=1;noEdgeStyle=1;orthogonal=1;" edge="1" source="24" target="41" parent="23">
                    <mxGeometry relative="1" as="geometry">
                        <Array as="points">
                            <mxPoint x="200" y="94"/>
                            <mxPoint x="200" y="118"/>
                        </Array>
                    </mxGeometry>
                </mxCell>
                <mxCell id="41" value="Card View&lt;br&gt;Emphasizes currently doing" style="whiteSpace=wrap;html=1;" vertex="1" parent="23">
                    <mxGeometry x="150" y="130" width="100" height="74" as="geometry"/>
                </mxCell>
                <mxCell id="42" value="" style="edgeStyle=none;html=1;noEdgeStyle=1;orthogonal=1;" edge="1" target="43" source="41" parent="23">
                    <mxGeometry relative="1" as="geometry">
                        <mxPoint x="817.5" y="1620" as="sourcePoint"/>
                        <Array as="points">
                            <mxPoint x="200" y="216"/>
                            <mxPoint x="152.5" y="242"/>
                        </Array>
                    </mxGeometry>
                </mxCell>
                <mxCell id="43" value="Add milestone&lt;br&gt;See Tasks&lt;br&gt;Be able to mark problems done&lt;br&gt;See total time" style="whiteSpace=wrap;html=1;" vertex="1" parent="23">
                    <mxGeometry x="80" y="254" width="100" height="124" as="geometry"/>
                </mxCell>
                <mxCell id="118" value="" style="edgeStyle=none;html=1;noEdgeStyle=1;orthogonal=1;" edge="1" source="24" target="119" parent="23">
                    <mxGeometry relative="1" as="geometry">
                        <Array as="points">
                            <mxPoint x="230" y="92"/>
                            <mxPoint x="330" y="118"/>
                        </Array>
                    </mxGeometry>
                </mxCell>
                <mxCell id="119" value="Friend View (generate link)" style="whiteSpace=wrap;html=1;" vertex="1" parent="23">
                    <mxGeometry x="280" y="147" width="100" height="40" as="geometry"/>
                </mxCell>
                <mxCell id="120" value="" style="edgeStyle=none;html=1;noEdgeStyle=1;orthogonal=1;" edge="1" target="121" source="119" parent="23">
                    <mxGeometry relative="1" as="geometry">
                        <mxPoint x="770" y="1380" as="sourcePoint"/>
                        <Array as="points">
                            <mxPoint x="330" y="216"/>
                            <mxPoint x="328.984375" y="242"/>
                        </Array>
                    </mxGeometry>
                </mxCell>
                <mxCell id="121" value="Mark each feature as public or private" style="whiteSpace=wrap;html=1;fillColor=#60a917;strokeColor=#2D7600;fontColor=#ffffff;" vertex="1" parent="23">
                    <mxGeometry x="273.984375" y="286" width="110" height="60" as="geometry"/>
                </mxCell>
                <mxCell id="128" value="" style="edgeStyle=none;html=1;noEdgeStyle=1;orthogonal=1;" edge="1" target="129" source="121" parent="23">
                    <mxGeometry relative="1" as="geometry">
                        <mxPoint x="735" y="1190" as="sourcePoint"/>
                        <Array as="points">
                            <mxPoint x="328.984375" y="390"/>
                            <mxPoint x="328.984375" y="416"/>
                        </Array>
                    </mxGeometry>
                </mxCell>
                <mxCell id="129" value="Automatically send out email, setting deadline&amp;nbsp;" style="whiteSpace=wrap;html=1;fillColor=#60a917;strokeColor=#2D7600;fontColor=#ffffff;" vertex="1" parent="23">
                    <mxGeometry x="273.984375" y="428" width="110" height="60" as="geometry"/>
                </mxCell>
                <mxCell id="214" value="Best friend" style="shape=umlActor;verticalLabelPosition=bottom;verticalAlign=top;html=1;outlineConnect=0;rounded=0;shadow=0;glass=0;sketch=0;fillColor=#2a2a2a;gradientColor=#ffffff;opacity=50;" vertex="1" parent="23">
                    <mxGeometry x="443.984375" y="40" width="30" height="60" as="geometry"/>
                </mxCell>
                <mxCell id="215" style="edgeStyle=none;html=1;exitX=0;exitY=0.3333333333333333;exitDx=0;exitDy=0;exitPerimeter=0;entryX=0.85;entryY=0;entryDx=0;entryDy=0;entryPerimeter=0;" edge="1" parent="23" source="214" target="119">
                    <mxGeometry relative="1" as="geometry">
                        <mxPoint x="410" y="120" as="targetPoint"/>
                    </mxGeometry>
                </mxCell>
                <mxCell id="105" value="" style="edgeStyle=none;html=1;entryX=0.985;entryY=0.089;entryDx=0;entryDy=0;entryPerimeter=0;" edge="1" parent="1" source="48" target="145">
                    <mxGeometry relative="1" as="geometry"/>
                </mxCell>
                <mxCell id="48" value="Add Problem" style="swimlane;startSize=20;horizontal=1;childLayout=flowLayout;flowOrientation=north;resizable=0;interRankCellSpacing=50;containerType=tree;fillColor=#1ba1e2;strokeColor=#006EAF;fontColor=#ffffff;" vertex="1" parent="1">
                    <mxGeometry x="500" y="330" width="530" height="353" as="geometry"/>
                </mxCell>
                <mxCell id="49" value="Add Problem I Care About" style="whiteSpace=wrap;html=1;" vertex="1" parent="48">
                    <mxGeometry x="215" y="40" width="100" height="40" as="geometry"/>
                </mxCell>
                <mxCell id="50" value="1. Need to be able to keep accountability (email)&amp;nbsp;" style="whiteSpace=wrap;html=1;" vertex="1" parent="48">
                    <mxGeometry x="20" y="130" width="100" height="75" as="geometry"/>
                </mxCell>
                <mxCell id="51" value="" style="html=1;curved=1;noEdgeStyle=1;orthogonal=1;" edge="1" parent="48" source="49" target="50">
                    <mxGeometry relative="1" as="geometry">
                        <Array as="points">
                            <mxPoint x="231.25" y="92"/>
                            <mxPoint x="70" y="118"/>
                        </Array>
                    </mxGeometry>
                </mxCell>
                <mxCell id="52" value="2. Define hypothesis&amp;nbsp;" style="whiteSpace=wrap;html=1;" vertex="1" parent="48">
                    <mxGeometry x="150" y="147.5" width="100" height="40" as="geometry"/>
                </mxCell>
                <mxCell id="53" value="" style="html=1;curved=1;noEdgeStyle=1;orthogonal=1;" edge="1" parent="48" source="49" target="52">
                    <mxGeometry relative="1" as="geometry">
                        <Array as="points">
                            <mxPoint x="253.75" y="94"/>
                            <mxPoint x="200" y="118"/>
                        </Array>
                    </mxGeometry>
                </mxCell>
                <mxCell id="59" value="" style="edgeStyle=none;html=1;noEdgeStyle=1;orthogonal=1;" edge="1" parent="48" source="49" target="61">
                    <mxGeometry relative="1" as="geometry">
                        <Array as="points">
                            <mxPoint x="276.25" y="94"/>
                            <mxPoint x="330" y="118"/>
                        </Array>
                    </mxGeometry>
                </mxCell>
                <mxCell id="61" value="3. Set deadline&amp;nbsp;" style="whiteSpace=wrap;html=1;rounded=0;glass=0;fillColor=#60a917;strokeColor=#2D7600;fontColor=#ffffff;" vertex="1" parent="48">
                    <mxGeometry x="280" y="142.5" width="100" height="50" as="geometry"/>
                </mxCell>
                <mxCell id="63" value="" style="edgeStyle=none;html=1;noEdgeStyle=1;orthogonal=1;" edge="1" target="64" source="61" parent="48">
                    <mxGeometry relative="1" as="geometry">
                        <mxPoint x="2000" y="3215" as="sourcePoint"/>
                        <Array as="points">
                            <mxPoint x="330" y="217"/>
                            <mxPoint x="330" y="243"/>
                        </Array>
                    </mxGeometry>
                </mxCell>
                <mxCell id="64" value="User will be notified&amp;nbsp;" style="whiteSpace=wrap;html=1;" vertex="1" parent="48">
                    <mxGeometry x="280" y="268.75" width="100" height="50" as="geometry"/>
                </mxCell>
                <mxCell id="65" value="" style="html=1;curved=1;noEdgeStyle=1;orthogonal=1;" edge="1" target="66" source="52" parent="48">
                    <mxGeometry relative="1" as="geometry">
                        <mxPoint x="1950" y="3175" as="sourcePoint"/>
                        <Array as="points">
                            <mxPoint x="200" y="217"/>
                            <mxPoint x="200" y="243"/>
                        </Array>
                    </mxGeometry>
                </mxCell>
                <mxCell id="66" value="This becomes a card - can mark by value and difficulty" style="whiteSpace=wrap;html=1;" vertex="1" parent="48">
                    <mxGeometry x="150" y="255" width="100" height="77.5" as="geometry"/>
                </mxCell>
                <mxCell id="67" value="" style="html=1;curved=1;noEdgeStyle=1;orthogonal=1;" edge="1" target="68" source="50" parent="48">
                    <mxGeometry relative="1" as="geometry">
                        <mxPoint x="1900" y="3135" as="sourcePoint"/>
                        <Array as="points">
                            <mxPoint x="70" y="217"/>
                            <mxPoint x="70" y="243"/>
                        </Array>
                    </mxGeometry>
                </mxCell>
                <mxCell id="68" value="Nodemailer -&amp;gt; will send email to friend to let them know" style="whiteSpace=wrap;html=1;fillColor=#60a917;strokeColor=#2D7600;fontColor=#ffffff;" vertex="1" parent="48">
                    <mxGeometry x="20" y="256.25" width="100" height="75" as="geometry"/>
                </mxCell>
                <mxCell id="168" value="" style="edgeStyle=none;html=1;noEdgeStyle=1;orthogonal=1;" edge="1" source="49" target="169" parent="48">
                    <mxGeometry relative="1" as="geometry">
                        <Array as="points">
                            <mxPoint x="298.75" y="92"/>
                            <mxPoint x="460" y="118"/>
                        </Array>
                    </mxGeometry>
                </mxCell>
                <mxCell id="169" value="Add Tools / Tags" style="whiteSpace=wrap;html=1;" vertex="1" parent="48">
                    <mxGeometry x="410" y="147.5" width="100" height="40" as="geometry"/>
                </mxCell>
                <mxCell id="170" value="" style="edgeStyle=none;html=1;noEdgeStyle=1;orthogonal=1;" edge="1" target="171" source="169" parent="48">
                    <mxGeometry relative="1" as="geometry">
                        <mxPoint x="1378.75" y="1330" as="sourcePoint"/>
                        <Array as="points">
                            <mxPoint x="460" y="217"/>
                            <mxPoint x="460" y="243"/>
                        </Array>
                    </mxGeometry>
                </mxCell>
                <mxCell id="171" value="Then can easily pull this up later&amp;nbsp;" style="whiteSpace=wrap;html=1;" vertex="1" parent="48">
                    <mxGeometry x="410" y="273.75" width="100" height="40" as="geometry"/>
                </mxCell>
                <mxCell id="84" value="high value" style="shape=partialRectangle;html=1;whiteSpace=wrap;connectable=0;fillColor=#60a917;top=0;left=0;bottom=0;right=0;overflow=hidden;pointerEvents=1;strokeColor=#2D7600;fontColor=#ffffff;" vertex="1" parent="1">
                    <mxGeometry x="620" y="50" width="60" height="40" as="geometry"/>
                </mxCell>
                <mxCell id="85" value="med value" style="shape=partialRectangle;html=1;whiteSpace=wrap;connectable=0;fillColor=#e3c800;top=0;left=0;bottom=0;right=0;overflow=hidden;pointerEvents=1;strokeColor=#B09500;fontColor=#000000;" vertex="1" parent="1">
                    <mxGeometry x="680" y="50" width="60" height="40" as="geometry"/>
                </mxCell>
                <mxCell id="86" value="low value" style="shape=partialRectangle;html=1;whiteSpace=wrap;connectable=0;fillColor=#a20025;top=0;left=0;bottom=0;right=0;overflow=hidden;pointerEvents=1;strokeColor=#6F0000;fontColor=#ffffff;" vertex="1" parent="1">
                    <mxGeometry x="740" y="50" width="60" height="40" as="geometry"/>
                </mxCell>
                <mxCell id="89" value="high difficuty&lt;br&gt;(rounded)" style="whiteSpace=wrap;html=1;aspect=fixed;fillColor=none;gradientColor=#ffffff;rounded=1;" vertex="1" parent="1">
                    <mxGeometry x="800" y="125" width="65" height="65" as="geometry"/>
                </mxCell>
                <mxCell id="90" value="The purpose of this project is to be able to solve problems, or change the way we see our problems, which can ultimately be motivated by social and artistic influences.&amp;nbsp;" style="shape=tapeData;whiteSpace=wrap;html=1;perimeter=ellipsePerimeter;fillColor=none;gradientColor=#ffffff;" vertex="1" parent="1">
                    <mxGeometry x="10" y="40" width="180" height="165" as="geometry"/>
                </mxCell>
                <mxCell id="91" value="What was the story here?" style="swimlane;startSize=20;horizontal=1;childLayout=flowLayout;flowOrientation=north;resizable=0;interRankCellSpacing=50;containerType=tree;fillColor=#008a00;strokeColor=#005700;fontColor=#ffffff;" vertex="1" parent="1">
                    <mxGeometry x="720" y="740" width="270" height="300" as="geometry"/>
                </mxCell>
                <mxCell id="92" value="When deadline hits" style="whiteSpace=wrap;html=1;" vertex="1" parent="91">
                    <mxGeometry x="85" y="40" width="100" height="40" as="geometry"/>
                </mxCell>
                <mxCell id="95" value="Reflection" style="whiteSpace=wrap;html=1;" vertex="1" parent="91">
                    <mxGeometry x="20" y="135" width="100" height="40" as="geometry"/>
                </mxCell>
                <mxCell id="96" value="" style="html=1;curved=1;noEdgeStyle=1;orthogonal=1;" edge="1" parent="91" source="92" target="95">
                    <mxGeometry relative="1" as="geometry">
                        <Array as="points">
                            <mxPoint x="112.5" y="92"/>
                            <mxPoint x="70" y="118"/>
                        </Array>
                    </mxGeometry>
                </mxCell>
                <mxCell id="97" value="" style="edgeStyle=none;html=1;noEdgeStyle=1;orthogonal=1;" edge="1" parent="91" source="92" target="98">
                    <mxGeometry relative="1" as="geometry">
                        <Array as="points">
                            <mxPoint x="157.5" y="92"/>
                            <mxPoint x="200" y="118"/>
                        </Array>
                    </mxGeometry>
                </mxCell>
                <mxCell id="98" value="Send email" style="whiteSpace=wrap;html=1;fillColor=#60a917;strokeColor=#2D7600;fontColor=#ffffff;" vertex="1" parent="91">
                    <mxGeometry x="150" y="130" width="100" height="50" as="geometry"/>
                </mxCell>
                <mxCell id="99" value="" style="edgeStyle=none;html=1;noEdgeStyle=1;orthogonal=1;" edge="1" parent="91" source="98" target="100">
                    <mxGeometry relative="1" as="geometry">
                        <mxPoint x="1060" y="1335" as="sourcePoint"/>
                        <Array as="points">
                            <mxPoint x="200" y="192"/>
                            <mxPoint x="200" y="218"/>
                        </Array>
                    </mxGeometry>
                </mxCell>
                <mxCell id="100" value="Beautiful Project Page" style="whiteSpace=wrap;html=1;fillColor=#60a917;strokeColor=#2D7600;fontColor=#ffffff;" vertex="1" parent="91">
                    <mxGeometry x="150" y="230" width="100" height="50" as="geometry"/>
                </mxCell>
                <mxCell id="212" value="" style="html=1;curved=1;noEdgeStyle=1;orthogonal=1;" edge="1" target="213" source="95" parent="91">
                    <mxGeometry relative="1" as="geometry">
                        <mxPoint x="852.5" y="860" as="sourcePoint"/>
                        <Array as="points">
                            <mxPoint x="70" y="192"/>
                            <mxPoint x="70" y="218"/>
                        </Array>
                    </mxGeometry>
                </mxCell>
                <mxCell id="213" value="Did i feel better?" style="whiteSpace=wrap;html=1;" vertex="1" parent="91">
                    <mxGeometry x="20" y="235" width="100" height="40" as="geometry"/>
                </mxCell>
                <mxCell id="126" value="low difficulty&amp;nbsp;&lt;br&gt;(glass)" style="rounded=0;whiteSpace=wrap;html=1;glass=1;gradientColor=#ffffff;" vertex="1" parent="1">
                    <mxGeometry x="610" y="130" width="80" height="60" as="geometry"/>
                </mxCell>
                <mxCell id="127" value="med difficulty (low opacity)" style="rounded=0;whiteSpace=wrap;html=1;glass=0;gradientColor=#ffffff;shadow=0;sketch=0;opacity=50;" vertex="1" parent="1">
                    <mxGeometry x="700" y="130" width="90" height="60" as="geometry"/>
                </mxCell>
                <mxCell id="145" value="Start Task " style="swimlane;startSize=20;horizontal=1;childLayout=flowLayout;flowOrientation=north;resizable=0;interRankCellSpacing=50;containerType=tree;fillColor=#d80073;strokeColor=#A50040;fontColor=#ffffff;" vertex="1" parent="1">
                    <mxGeometry x="290" y="890" width="400" height="190" as="geometry"/>
                </mxCell>
                <mxCell id="146" value="Start Task and Timer" style="whiteSpace=wrap;html=1;fillColor=#60a917;strokeColor=#2D7600;fontColor=#ffffff;" vertex="1" parent="145">
                    <mxGeometry x="150" y="40" width="100" height="40" as="geometry"/>
                </mxCell>
                <mxCell id="172" value="" style="edgeStyle=none;html=1;noEdgeStyle=1;orthogonal=1;" edge="1" source="146" target="173" parent="145">
                    <mxGeometry relative="1" as="geometry">
                        <Array as="points">
                            <mxPoint x="170" y="92"/>
                            <mxPoint x="70" y="118"/>
                        </Array>
                    </mxGeometry>
                </mxCell>
                <mxCell id="173" value="Close all other windows" style="whiteSpace=wrap;html=1;fillColor=#60a917;strokeColor=#2D7600;fontColor=#ffffff;" vertex="1" parent="145">
                    <mxGeometry x="20" y="130" width="100" height="40" as="geometry"/>
                </mxCell>
                <mxCell id="174" value="" style="edgeStyle=none;html=1;noEdgeStyle=1;orthogonal=1;" edge="1" source="146" target="175" parent="145">
                    <mxGeometry relative="1" as="geometry">
                        <Array as="points">
                            <mxPoint x="200" y="94"/>
                            <mxPoint x="200" y="118"/>
                        </Array>
                    </mxGeometry>
                </mxCell>
                <mxCell id="175" value="Start Task and Timer" style="whiteSpace=wrap;html=1;fillColor=#60a917;strokeColor=#2D7600;fontColor=#ffffff;" vertex="1" parent="145">
                    <mxGeometry x="150" y="130" width="100" height="40" as="geometry"/>
                </mxCell>
                <mxCell id="188" value="" style="edgeStyle=none;html=1;noEdgeStyle=1;orthogonal=1;" edge="1" source="146" target="189" parent="145">
                    <mxGeometry relative="1" as="geometry">
                        <Array as="points">
                            <mxPoint x="230" y="92"/>
                            <mxPoint x="330" y="118"/>
                        </Array>
                    </mxGeometry>
                </mxCell>
                <mxCell id="189" value="Add notes" style="whiteSpace=wrap;html=1;fillColor=#60a917;strokeColor=#2D7600;fontColor=#ffffff;" vertex="1" parent="145">
                    <mxGeometry x="280" y="130" width="100" height="40" as="geometry"/>
                </mxCell>
                <mxCell id="106" value="how do i make this fun?&amp;nbsp;" style="rounded=1;whiteSpace=wrap;html=1;strokeWidth=2;fillWeight=4;hachureGap=8;hachureAngle=45;fillColor=#60a917;sketch=1;strokeColor=#2D7600;fontColor=#ffffff;" vertex="1" parent="1">
                    <mxGeometry x="1380" y="30" width="120" height="60" as="geometry"/>
                </mxCell>
                <mxCell id="140" value="what tools have i still continued to use?" style="rounded=1;whiteSpace=wrap;html=1;strokeWidth=2;fillWeight=4;hachureGap=8;hachureAngle=45;fillColor=#60a917;sketch=1;strokeColor=#2D7600;fontColor=#ffffff;" vertex="1" parent="1">
                    <mxGeometry x="1534" y="145" width="120" height="60" as="geometry"/>
                </mxCell>
                <mxCell id="110" value="when was i motivated?" style="rounded=1;whiteSpace=wrap;html=1;strokeWidth=2;fillWeight=4;hachureGap=8;hachureAngle=45;fillColor=#60a917;sketch=1;strokeColor=#2D7600;fontColor=#ffffff;" vertex="1" parent="1">
                    <mxGeometry x="1370" y="140" width="120" height="60" as="geometry"/>
                </mxCell>
                <mxCell id="143" value="Adobe&lt;br&gt;Quokka&lt;br&gt;paper and pencil&lt;br&gt;goodreads&lt;br&gt;codepen&lt;br&gt;my problem solving tool" style="ellipse;whiteSpace=wrap;html=1;aspect=fixed;rounded=0;shadow=0;glass=0;sketch=0;opacity=50;fillColor=#60a917;strokeColor=#2D7600;fontColor=#ffffff;" vertex="1" parent="1">
                    <mxGeometry x="1510" y="220" width="140" height="140" as="geometry"/>
                </mxCell>
                <mxCell id="132" value="Accountability&lt;br&gt;Seeing table (deadlines for school)&lt;br&gt;love&lt;br&gt;Senior project" style="ellipse;whiteSpace=wrap;html=1;aspect=fixed;rounded=0;shadow=0;glass=0;sketch=0;opacity=50;fillColor=#60a917;strokeColor=#2D7600;fontColor=#ffffff;" vertex="1" parent="1">
                    <mxGeometry x="1350" y="225" width="120" height="120" as="geometry"/>
                </mxCell>
                <mxCell id="108" value="when have i consistently paid for things?" style="rounded=1;whiteSpace=wrap;html=1;strokeWidth=2;fillWeight=4;hachureGap=8;hachureAngle=45;fillColor=#60a917;sketch=1;strokeColor=#2D7600;fontColor=#ffffff;" vertex="1" parent="1">
                    <mxGeometry x="1210" y="140" width="120" height="60" as="geometry"/>
                </mxCell>
                <mxCell id="130" value="Quokka&amp;nbsp;&lt;br&gt;Spotify&amp;nbsp;&lt;br&gt;School of life" style="ellipse;whiteSpace=wrap;html=1;aspect=fixed;rounded=0;shadow=0;glass=0;sketch=0;opacity=50;fillColor=#1ba1e2;strokeColor=#006EAF;fontColor=#ffffff;" vertex="1" parent="1">
                    <mxGeometry x="1230" y="230" width="80" height="80" as="geometry"/>
                </mxCell>
                <mxCell id="177" value="Art&amp;nbsp;&lt;br&gt;Social&lt;br&gt;Clear Thinking&lt;br&gt;Doing things that are true to me" style="ellipse;whiteSpace=wrap;html=1;aspect=fixed;rounded=0;shadow=0;glass=0;sketch=0;opacity=50;fillColor=#d80073;strokeColor=#A50040;fontColor=#ffffff;" vertex="1" parent="1">
                    <mxGeometry x="1325" y="360" width="210" height="210" as="geometry"/>
                </mxCell>
                <mxCell id="187" style="edgeStyle=none;html=1;" edge="1" parent="1" source="64" target="91">
                    <mxGeometry relative="1" as="geometry">
                        <mxPoint x="1010" y="680" as="targetPoint"/>
                    </mxGeometry>
                </mxCell>
                <mxCell id="219" value="" style="edgeStyle=none;html=1;" edge="1" parent="1" source="216" target="119">
                    <mxGeometry relative="1" as="geometry"/>
                </mxCell>
                <mxCell id="216" value="Potential Employer" style="shape=umlActor;verticalLabelPosition=bottom;verticalAlign=top;html=1;outlineConnect=0;rounded=0;shadow=0;glass=0;sketch=0;fillColor=#2a2a2a;gradientColor=#ffffff;opacity=50;" vertex="1" parent="1">
                    <mxGeometry x="420" y="476.5" width="24" height="60" as="geometry"/>
                </mxCell>
                <mxCell id="221" style="edgeStyle=none;html=1;" edge="1" parent="1" source="220">
                    <mxGeometry relative="1" as="geometry">
                        <mxPoint x="350" y="530" as="targetPoint"/>
                    </mxGeometry>
                </mxCell>
                <mxCell id="220" value="mom and dad" style="shape=umlActor;verticalLabelPosition=bottom;verticalAlign=top;html=1;outlineConnect=0;rounded=0;shadow=0;glass=0;sketch=0;fillColor=#2a2a2a;gradientColor=#ffffff;opacity=50;" vertex="1" parent="1">
                    <mxGeometry x="414" y="580" width="24" height="60" as="geometry"/>
                </mxCell>
            </root>
        </mxGraphModel>
    </diagram>
</mxfile>